<?xml version="1.0" standalone="no"?>
<!DOCTYPE svg PUBLIC "-//W3C//DTD SVG 20010904//EN"
 "http://www.w3.org/TR/2001/REC-SVG-20010904/DTD/svg10.dtd">
<svg version="1.0" xmlns="http://www.w3.org/2000/svg"
 width="512.000000pt" height="512.000000pt" viewBox="0 0 512.000000 512.000000"
 preserveAspectRatio="xMidYMid meet">
<metadata>
Created by potrace 1.14, written by Peter Selinger 2001-2017
</metadata>
<g transform="translate(0.000000,512.000000) scale(0.100000,-0.100000)"
fill="#000000" stroke="none">
<path d="M2630 4584 c-14 -2 -59 -9 -100 -15 -95 -13 -283 -62 -341 -89 -38
-17 -26 -19 21 -2 45 16 -9 -11 -105 -52 -444 -190 -840 -556 -1092 -1011
-285 -515 -373 -1121 -237 -1639 154 -584 557 -1001 1098 -1131 366 -89 761
-37 1141 149 651 320 1121 971 1255 1737 14 78 24 193 28 309 6 150 8 172 13
115 4 -42 5 -18 3 60 -11 420 -184 840 -461 1121 -204 207 -427 336 -698 404
-165 42 -402 62 -525 44z m338 -369 c490 -93 867 -480 980 -1006 114 -525 -41
-1129 -405 -1579 -143 -177 -360 -359 -550 -462 -351 -191 -737 -238 -1075
-132 -439 138 -760 524 -854 1029 -26 140 -26 467 0 610 69 379 254 743 521
1023 248 260 530 428 844 501 182 43 369 48 539 16z m-2038 -2376 c0 -6 -4 -7
-10 -4 -5 3 -10 11 -10 16 0 6 5 7 10 4 6 -3 10 -11 10 -16z m20 -36 c0 -10 7
-27 15 -37 8 -11 15 -28 15 -38 0 -10 4 -18 10 -18 5 0 12 -11 16 -25 3 -14
10 -25 14 -25 4 0 15 -17 24 -37 16 -37 36 -73 46 -83 3 -3 11 -17 18 -31 8
-15 24 -37 35 -50 12 -13 40 -47 61 -74 22 -28 47 -57 55 -66 9 -9 28 -29 42
-45 67 -74 299 -254 329 -254 5 0 10 -4 10 -10 0 -5 7 -10 16 -10 9 0 30 -10
47 -22 18 -13 33 -21 35 -20 1 2 34 -9 73 -23 94 -36 153 -52 289 -76 150 -27
278 -26 480 1 47 7 97 13 111 14 14 2 30 5 35 8 5 3 35 9 67 13 48 6 57 5 57
-8 0 -15 -95 -67 -122 -67 -8 0 -18 -4 -24 -9 -12 -11 -154 -55 -214 -66 -105
-20 -218 -27 -332 -22 -73 4 -144 9 -158 12 -121 24 -167 36 -220 58 -14 6
-31 11 -38 13 -13 2 -107 49 -197 98 -37 19 -136 86 -177 119 -10 8 -18 19
-18 26 0 6 -4 10 -8 9 -12 -4 -92 74 -86 83 2 4 -4 10 -13 14 -29 9 -163 205
-211 307 -59 125 -82 184 -74 192 3 4 1 11 -6 15 -17 10 -29 151 -13 151 6 0
11 -8 11 -17z"/>
<path d="M2541 3269 c-132 -35 -250 -109 -357 -220 -158 -167 -238 -363 -238
-589 0 -198 55 -342 178 -466 120 -120 251 -170 421 -161 180 10 332 82 475
226 142 144 226 317 250 517 18 150 -15 319 -86 441 -40 69 -149 173 -220 211
-121 63 -282 79 -423 41z m295 -43 c166 -44 330 -209 359 -361 4 -22 3 -25 -3
-10 -7 16 -11 9 -17 -35 -7 -54 -22 -95 -47 -135 -19 -28 -28 -37 -75 -68 -73
-50 -116 -57 -347 -57 l-210 0 60 36 c32 19 77 54 99 76 l40 42 -42 -37 c-126
-109 -255 -146 -357 -103 -21 9 -43 13 -50 9 -6 -3 -8 -2 -3 2 11 13 -33 54
-52 48 -12 -4 -13 -3 -3 5 12 8 11 14 -1 38 -25 50 -30 108 -13 173 22 88 51
137 120 210 45 49 51 57 21 33 -21 -17 -53 -50 -71 -72 -17 -21 -34 -36 -38
-32 -4 3 -4 -2 -1 -13 5 -14 4 -16 -3 -7 -7 11 -10 11 -15 -3 -4 -9 -3 -13 3
-10 14 9 12 -6 -5 -35 l-15 -25 6 30 6 30 -32 -35 -32 -35 28 40 c102 146 254
257 409 300 66 17 217 18 281 1z m-679 -388 c-3 -8 -6 -5 -6 6 -1 11 2 17 5
13 3 -3 4 -12 1 -19z m1050 -30 c-3 -8 -6 -5 -6 6 -1 11 2 17 5 13 3 -3 4 -12
1 -19z"/>
<path d="M1854 4514 c-18 -14 -18 -15 4 -4 12 6 22 13 22 15 0 8 -5 6 -26 -11z"/>
<path d="M1784 4474 c-18 -14 -18 -15 4 -4 12 6 22 13 22 15 0 8 -5 6 -26 -11z"/>
<path d="M1629 4373 c-13 -16 -12 -17 4 -4 16 13 21 21 13 21 -2 0 -10 -8 -17
-17z"/>
<path d="M1549 4313 c-13 -16 -12 -17 4 -4 16 13 21 21 13 21 -2 0 -10 -8 -17
-17z"/>
<path d="M1509 4283 c-13 -16 -12 -17 4 -4 9 7 17 15 17 17 0 8 -8 3 -21 -13z"/>
<path d="M1444 4228 l-19 -23 23 19 c21 18 27 26 19 26 -2 0 -12 -10 -23 -22z"/>
<path d="M4055 4220 c10 -11 20 -20 23 -20 3 0 -3 9 -13 20 -10 11 -20 20 -23
20 -3 0 3 -9 13 -20z"/>
<path d="M1325 4118 l-40 -43 43 40 c39 36 47 45 39 45 -2 0 -21 -19 -42 -42z"/>
<path d="M4522 3080 c0 -14 2 -19 5 -12 2 6 2 18 0 25 -3 6 -5 1 -5 -13z"/>
<path d="M4533 2860 c0 -25 2 -35 4 -22 2 12 2 32 0 45 -2 12 -4 2 -4 -23z"/>
<path d="M4527 2793 c-4 -3 -7 -34 -7 -67 -1 -139 -55 -418 -120 -616 -95
-289 -231 -551 -414 -794 -375 -498 -892 -835 -1435 -936 -53 -10 -85 -19 -73
-19 46 -2 226 40 357 83 156 52 319 128 469 219 60 37 115 67 122 67 7 0 14 4
16 10 2 5 27 27 57 49 330 246 656 671 831 1085 46 106 120 319 120 341 0 8 4
16 8 19 11 6 -3 -118 -24 -214 -54 -251 -189 -524 -354 -715 l-52 -60 55 57
c31 32 82 95 114 140 l58 83 102 0 102 0 -37 -68 c-77 -144 -223 -316 -382
-451 -36 -30 -38 -34 -10 -15 70 45 274 262 342 364 217 325 315 723 264 1075
-17 115 -96 377 -109 363z"/>
<path d="M3919 1143 l-24 -28 28 24 c25 23 32 31 24 31 -2 0 -14 -12 -28 -27z"/>
<path d="M3859 1093 c-13 -16 -12 -17 4 -4 9 7 17 15 17 17 0 8 -8 3 -21 -13z"/>
<path d="M3952 946 c-46 -33 -53 -43 -14 -20 19 10 38 25 44 32 15 17 8 14
-30 -12z"/>
<path d="M3874 894 c-18 -14 -18 -15 4 -4 12 6 22 13 22 15 0 8 -5 6 -26 -11z"/>
<path d="M1808 393 c7 -3 16 -2 19 1 4 3 -2 6 -13 5 -11 0 -14 -3 -6 -6z"/>
<path d="M1848 383 c6 -2 18 -2 25 0 6 3 1 5 -13 5 -14 0 -19 -2 -12 -5z"/>
<path d="M1898 373 c6 -2 18 -2 25 0 6 3 1 5 -13 5 -14 0 -19 -2 -12 -5z"/>
<path d="M1953 363 c9 -2 23 -2 30 0 6 3 -1 5 -18 5 -16 0 -22 -2 -12 -5z"/>
<path d="M2028 353 c12 -2 32 -2 45 0 12 2 2 4 -23 4 -25 0 -35 -2 -22 -4z"/>
<path d="M2383 353 c15 -2 37 -2 50 0 12 2 0 4 -28 4 -27 0 -38 -2 -22 -4z"/>
<path d="M2173 343 c32 -2 81 -2 110 0 29 2 3 3 -58 3 -60 0 -84 -1 -52 -3z"/>
</g>
</svg>
